<svg width="512" height="512" viewBox="0 0 512 512" xmlns="http://www.w3.org/2000/svg">
  <rect x="0" y="0" width="512" height="512" fill="#000000"/>

  <g transform="translate(100, 80)">
    <rect x="0" y="0" width="60" height="350" fill="#333"/>
    <rect x="10" y="20" width="40" height="50" fill="#555"/>
    <rect x="0" y="100" width="50" height="20" fill="#777"/>
    <rect x="10" y="150" width="60" height="80" fill="#444"/>
    <rect x="-10" y="250" width="80" height="40" fill="#999"/> <rect x="60" y="0" width="150" height="40" fill="#666"/>
    <rect x="80" y="10" width="100" height="10" fill="#aaa"/>
    
    <rect x="60" y="310" width="150" height="40" fill="#666"/>
    <rect x="100" y="320" width="80" height="10" fill="#aaa"/>

    <rect x="210" y="40" width="40" height="40" fill="#444"/>
    <rect x="240" y="70" width="40" height="60" fill="#888"/>
    <rect x="260" y="120" width="40" height="110" fill="#ccc"/> <rect x="240" y="220" width="40" height="60" fill="#888"/>
    <rect x="210" y="270" width="40" height="40" fill="#444"/>
    
    <rect x="280" y="150" width="30" height="5" fill="#fff"/>
    <rect x="280" y="170" width="20" height="5" fill="#fff"/>
    <rect x="280" y="190" width="10" height="5" fill="#fff"/>
  </g>

  <text x="256" y="460" font-family="Arial, sans-serif" font-weight="bold" font-size="20" fill="#666" text-anchor="middle" letter-spacing="10">DECUAYER</text>
</svg>