<svg width="512" height="512" viewBox="0 0 512 512" xmlns="http://www.w3.org/2000/svg">
  <defs>
    <linearGradient id="grad1" x1="0%" y1="0%" x2="100%" y2="100%">
      <stop offset="0%" style="stop-color:#2a2a2a;stop-opacity:1" />
      <stop offset="100%" style="stop-color:#000000;stop-opacity:1" />
    </linearGradient>
  </defs>

  <rect x="40" y="80" width="432" height="352" rx="15" fill="url(#grad1)" stroke="#444" stroke-width="2"/>
  
  <rect x="40" y="80" width="432" height="40" rx="15" fill="#1a1a1a"/>
  <rect x="40" y="110" width="432" height="10" fill="#1a1a1a"/> <circle cx="70" cy="100" r="6" fill="#555"/>
  <circle cx="95" cy="100" r="6" fill="#555"/>
  <circle cx="120" cy="100" r="6" fill="#555"/>

  <g transform="translate(90, 200)" fill="#ffffff">
    <path d="M0,0 L60,0 C90,0 100,20 100,60 L100,80 C100,120 90,140 60,140 L0,140 Z M20,20 L20,120 L50,120 C70,120 80,110 80,80 L80,60 C80,30 70,20 50,20 Z"/>
    <path d="M120,0 L200,0 L200,20 L140,20 L140,50 L190,50 L190,70 L140,70 L140,120 L200,120 L200,140 L120,140 Z"/>
    <path d="M300,0 L240,0 L240,140 L300,140 L300,120 L260,120 L260,20 L300,20 Z"/>
    <path d="M320,0 L340,0 L340,110 C340,130 350,140 370,140 L390,140 C410,140 420,130 420,110 L420,0 L440,0 L440,110 C440,150 420,160 380,160 L380,160 C340,160 320,150 320,110 Z"/>
  </g>

  <rect x="290" y="380" width="40" height="10" fill="#ffffff">
    <animate attributeName="opacity" values="1;0;1" dur="0.8s" repeatCount="indefinite" />
  </rect>
  
  <text x="90" y="400" font-family="monospace" font-size="24" fill="#888">root@demircucu:~#</text>
</svg>