<svg width="512" height="512" viewBox="0 0 512 512" xmlns="http://www.w3.org/2000/svg">
  <rect x="0" y="0" width="512" height="512" rx="100" fill="#0f172a"/>
  
  <path d="M140 100 
           L240 100 
           A110 110 0 0 1 350 210 
           L350 300 
           A110 110 0 0 1 240 410 
           L140 410 
           L140 100 Z" 
        fill="none" 
        stroke="#22d3ee" 
        stroke-width="40" 
        stroke-linecap="round" 
        stroke-linejoin="round"/>

  <circle cx="140" cy="100" r="25" fill="#22d3ee"/>
  <circle cx="140" cy="410" r="25" fill="#22d3ee"/>

  <path d="M300 160 
           A60 60 0 0 0 240 220 
           L240 290 
           A60 60 0 0 0 300 350" 
        fill="none" 
        stroke="#ffffff" 
        stroke-width="25" 
        stroke-linecap="round"/>

  <circle cx="300" cy="160" r="15" fill="#ffffff"/>
  <circle cx="300" cy="350" r="15" fill="#ffffff"/>
  
  <rect x="380" y="380" width="40" height="10" fill="#22d3ee">
    <animate attributeName="opacity" values="1;0;1" dur="1s" repeatCount="indefinite" />
  </rect>
</svg>